<svg width="16" height="14" viewBox="0 0 16 14" fill="none" xmlns="http://www.w3.org/2000/svg">
<path d="M13.359 10.238C15.06 8.72 16 7 16 7C16 7 13 1.5 7.99996 1.5C7.03955 1.50331 6.09002 1.70342 5.20996 2.088L5.97996 2.859C6.6274 2.62315 7.31091 2.50168 7.99996 2.5C10.12 2.5 11.879 3.668 13.168 4.957C13.7883 5.58069 14.3444 6.26513 14.828 7C14.77 7.087 14.706 7.183 14.633 7.288C14.298 7.768 13.803 8.408 13.168 9.043C13.003 9.208 12.831 9.371 12.651 9.529L13.359 10.238Z" fill="white"/>
<path d="M11.2969 8.17611C11.52 7.55195 11.5613 6.87726 11.416 6.23053C11.2707 5.5838 10.9448 4.99164 10.476 4.52293C10.0073 4.05422 9.41517 3.72825 8.76845 3.58294C8.12172 3.43763 7.44702 3.47896 6.82287 3.70211L7.64587 4.52511C8.03018 4.4701 8.42202 4.50536 8.79034 4.62807C9.15866 4.75079 9.49334 4.9576 9.76786 5.23212C10.0424 5.50664 10.2492 5.84132 10.3719 6.20964C10.4946 6.57796 10.5299 6.9698 10.4749 7.35411L11.2969 8.17611ZM8.35387 9.47511L9.17587 10.2971C8.55171 10.5203 7.87701 10.5616 7.23029 10.4163C6.58356 10.271 5.99139 9.945 5.52269 9.47629C5.05398 9.00759 4.72801 8.41542 4.5827 7.76869C4.43738 7.12196 4.47871 6.44727 4.70187 5.82311L5.52487 6.64611C5.46986 7.03042 5.50511 7.42226 5.62783 7.79058C5.75055 8.1589 5.95736 8.49358 6.23188 8.7681C6.5064 9.04262 6.84107 9.24943 7.2094 9.37215C7.57772 9.49487 7.96956 9.53012 8.35387 9.47511Z" fill="white"/>
<path d="M3.35 4.46996C3.17 4.62996 2.997 4.79196 2.832 4.95696C2.21165 5.58065 1.65552 6.26509 1.172 6.99996L1.367 7.28796C1.702 7.76796 2.197 8.40796 2.832 9.04296C4.121 10.332 5.881 11.5 8 11.5C8.716 11.5 9.39 11.367 10.02 11.14L10.79 11.912C9.90994 12.2965 8.9604 12.4966 8 12.5C3 12.5 0 6.99996 0 6.99996C0 6.99996 0.939 5.27896 2.641 3.76196L3.349 4.47096L3.35 4.46996Z" fill="white"/>
<path fill-rule="evenodd" clip-rule="evenodd" d="M13.646 13.354L1.646 1.354L2.354 0.645996L14.354 12.646L13.646 13.354Z" fill="white"/>
</svg>
