<svg width="33" height="33" viewBox="0 0 33 33" fill="none" xmlns="http://www.w3.org/2000/svg">
<path opacity="0.5" d="M33 16.4954C33 25.6072 25.6115 32.9908 16.5 32.9908C7.38852 32.9908 0 25.6044 0 16.4954C0 7.38646 7.38852 0 16.5 0C25.6115 0 33 7.38646 33 16.4954Z" fill="#98A444"/>
<mask id="mask0" mask-type="alpha" maskUnits="userSpaceOnUse" x="0" y="0" width="33" height="33">
<path d="M33 16.4954C33 25.6072 25.6115 32.9908 16.5 32.9908C7.38852 32.9908 0 25.6044 0 16.4954C0 7.38646 7.38852 0 16.5 0C25.6115 0 33 7.38646 33 16.4954Z" fill="#98A444"/>
</mask>
<g mask="url(#mask0)">
<path d="M23.5575 9.86426C22.682 10.156 23.6585 13.6402 24.6687 12.2432C24.7333 12.7594 24.4863 13.2952 23.9139 13.2671C23.7764 13.8563 24.6463 13.744 24.6659 14.4342C24.6828 15.1159 24.0458 15.0541 24.043 15.6797C24.0402 16.2745 24.694 16.6448 25.2187 16.4568C25.8613 16.2296 25.9119 15.6741 26.0494 15.1832C26.3524 15.6966 26.4394 16.3951 26.1279 16.9113C26.5348 16.9618 26.7453 16.5971 26.7593 16.238C26.9754 16.5831 26.894 17.0796 26.6835 17.3966C26.8407 17.3629 27.0596 17.4443 27.2195 17.419C27.3233 18.0222 26.8098 18.7011 26.3328 19.0518C25.8165 19.4333 24.7838 19.3491 25.6369 20.0561C26.2654 20.5779 26.7958 20.2777 26.8154 21.2848C26.8295 22.0058 26.4871 22.6791 25.721 22.6566C25.7126 22.6061 25.6958 22.5612 25.6705 22.536C26.229 23.1756 26.0746 24.2304 25.4966 24.7915C25.6144 24.4156 25.6733 23.8797 25.3085 23.6469C25.3591 23.9387 25.3198 24.2388 25.0307 24.3426C25.1486 25.6948 22.6034 25.7649 21.6971 25.8519C21.0068 25.9192 20.3698 26.2026 19.6879 26.2699C19.0453 26.3344 18.3381 26.2222 17.6899 26.1857C17.6282 23.386 16.1353 20.85 15.1335 18.2859C14.6818 17.1273 15.3468 16.4344 16.1718 15.5339C17.3588 14.2378 18.6496 13.1128 19.6879 11.7298L23.5575 9.86426Z" fill="#31201E"/>
<path d="M9.08627 9.86426C9.96178 10.156 8.98244 13.6402 7.97505 12.2432C7.91051 12.7594 8.15744 13.2952 8.72989 13.2671C8.86739 13.8563 7.9975 13.744 7.97785 14.4342C7.96102 15.1159 8.59801 15.0541 8.60081 15.6797C8.60362 16.2745 7.94979 16.6448 7.42505 16.4568C6.78244 16.2296 6.73193 15.6741 6.59443 15.1832C6.29137 15.6966 6.20438 16.3951 6.51586 16.9113C6.11178 16.9618 5.90132 16.5971 5.88449 16.238C5.66841 16.5831 5.74979 17.0796 5.96025 17.3966C5.80311 17.3629 5.58704 17.4443 5.42709 17.419C5.32326 18.0222 5.83678 18.7011 6.31382 19.0518C6.83015 19.4333 7.8628 19.3491 7.00974 20.0561C6.38117 20.5779 5.85081 20.2777 5.83117 21.2848C5.81714 22.0058 6.15949 22.6791 6.92836 22.6566C6.93678 22.6061 6.95362 22.5612 6.97887 22.536C6.42046 23.1756 6.57479 24.2304 7.15285 24.7915C7.035 24.4156 6.97607 23.8797 7.34086 23.6469C7.29035 23.9387 7.32964 24.2388 7.62147 24.3426C7.50362 25.6948 10.0488 25.7649 10.9551 25.8519C11.6455 25.9192 12.2824 26.2026 12.9643 26.2699C13.6069 26.3344 14.3141 26.2222 14.9595 26.1857C15.0212 23.386 16.5141 20.85 17.5159 18.2859C17.9676 17.1273 17.3026 16.4344 16.4776 15.5339C15.2906 14.2378 13.997 13.1128 12.9615 11.7298L9.08627 9.86426Z" fill="#31201E"/>
<path d="M25.4486 25.7427C24.4132 24.4495 16.2052 21.6133 16.2052 21.6133C16.2052 21.6133 8.17132 24.7497 6.96188 25.7427C5.75244 26.7358 5.29785 33.003 5.29785 33.003H26.8741C26.8741 33.0002 26.4869 27.0332 25.4486 25.7427Z" fill="#BC4C58"/>
<path d="M18.7502 23.1248C18.7502 23.1248 18.436 24.6481 16.2079 24.6481C13.9798 24.6481 13.6655 23.1248 13.6655 23.1248C13.6655 23.1248 14.2857 21.8933 13.6655 20.4485C13.0454 19.0038 19.5079 18.7092 18.7502 20.4485C17.9926 22.1878 18.7502 23.1248 18.7502 23.1248Z" fill="#CEA57A"/>
<path d="M21.5143 17.4161C21.6771 15.2476 23.0521 12.1225 23.0521 12.1225C25.0107 7.74614 21.8679 1.34996 19.1852 3.17624C16.3118 -0.65586 6.6643 3.63351 9.56864 12.0636C9.56864 12.0636 10.7612 14.9699 10.8763 17.116C10.9913 19.2621 14.847 21.3212 16.0873 21.3913C17.3248 21.4586 21.3515 19.5847 21.5143 17.4161Z" fill="#31201E"/>
<path d="M23.3914 13.3766C23.3914 14.524 22.5777 16.0978 22.0305 16.0978C21.4833 16.0978 21.0371 15.1692 21.0371 14.0218C21.0371 12.8745 21.5983 12.2825 22.0305 11.9459C22.5608 11.5307 23.3914 11.9459 23.3914 13.3766Z" fill="#E9BA8E"/>
<path d="M9.18457 13.3766C9.18457 14.524 9.99835 16.0978 10.5455 16.0978C11.0927 16.0978 11.5389 15.1692 11.5389 14.0218C11.5389 12.8745 10.9777 12.2825 10.5455 11.9459C10.0152 11.5307 9.18457 11.9459 9.18457 13.3766Z" fill="#E9BA8E"/>
<path d="M16.312 4.28418C12.4592 4.28418 10.7559 6.98292 10.7559 11.0086C10.7559 13.0593 10.7559 14.6639 10.7559 16.0498C10.7559 19.5565 14.8079 22.5554 16.0875 22.5554C17.3671 22.5554 21.8681 19.0487 21.8681 15.7272C21.8681 14.4143 21.8681 12.9022 21.8681 11.0086C21.8681 6.98292 20.1648 4.28418 16.312 4.28418Z" fill="#E9BA8E"/>
<path d="M21.868 13.8845L22.0307 11.7945C22.8697 7.72398 20.2011 3.78809 16.3483 3.78809C12.4955 3.78809 9.50698 8.08306 10.5396 12.1536L10.7557 14.5325C10.7557 14.5325 11.4965 13.907 11.6256 12.7792C11.7968 11.2783 12.8884 9.81396 14.9958 9.40999C18.3182 8.77598 19.2526 6.78419 19.2526 6.78419C19.2526 6.78419 19.9542 7.7885 20.6501 9.40999C21.0991 10.4592 20.6501 11.1016 21.0373 12.1508C21.447 13.2561 21.868 13.8845 21.868 13.8845Z" fill="#31201E"/>
</g>
</svg>
