<svg width="84" height="84" viewBox="0 0 84 84" fill="none" xmlns="http://www.w3.org/2000/svg">
<path opacity="0.5" d="M84 41.9883C84 65.1819 65.1929 83.9766 42 83.9766C18.8071 83.9766 0 65.1747 0 41.9883C0 18.8019 18.8071 0 42 0C65.1929 0 84 18.8019 84 41.9883Z" fill="#98A444"/>
<mask id="mask0" mask-type="alpha" maskUnits="userSpaceOnUse" x="0" y="0" width="84" height="84">
<path d="M84 41.9883C84 65.1819 65.1929 83.9766 42 83.9766C18.8071 83.9766 0 65.1747 0 41.9883C0 18.8019 18.8071 0 42 0C65.1929 0 84 18.8019 84 41.9883Z" fill="#98A444"/>
</mask>
<g mask="url(#mask0)">
<path d="M59.9635 25.1094C57.735 25.852 60.2207 34.721 62.7921 31.1648C62.9564 32.4788 62.3278 33.8427 60.8707 33.7712C60.5207 35.2708 62.735 34.9852 62.785 36.7418C62.8278 38.4771 61.2064 38.32 61.1993 39.9124C61.1921 41.4263 62.8564 42.3689 64.1921 41.8904C65.8278 41.312 65.9564 39.8981 66.3064 38.6485C67.0778 39.9552 67.2993 41.7333 66.5064 43.0472C67.5421 43.1758 68.0778 42.2475 68.1135 41.3334C68.6635 42.2118 68.4564 43.4757 67.9207 44.2826C68.3207 44.1969 68.8778 44.404 69.285 44.3397C69.5492 45.875 68.2421 47.6031 67.0278 48.4957C65.7135 49.4669 63.085 49.2527 65.2564 51.0522C66.8564 52.3804 68.2064 51.6163 68.2564 54.1799C68.2921 56.0151 67.4207 57.7289 65.4707 57.6717C65.4493 57.5432 65.4064 57.4289 65.3421 57.3647C66.7635 58.9928 66.3707 61.6778 64.8993 63.1059C65.1993 62.1491 65.3493 60.7852 64.4207 60.1925C64.5493 60.9351 64.4492 61.6992 63.7135 61.9634C64.0135 65.4053 57.535 65.5838 55.2278 65.8052C53.4707 65.9766 51.8493 66.6978 50.1135 66.8692C48.4778 67.0334 46.6778 66.7478 45.0278 66.655C44.8707 59.5284 41.0707 53.073 38.5207 46.5463C37.3707 43.5971 39.0635 41.8333 41.1635 39.5411C44.185 36.242 47.4707 33.3785 50.1135 29.8581L59.9635 25.1094Z" fill="#31201E"/>
<path d="M23.128 25.1094C25.3566 25.852 22.8637 34.721 20.2994 31.1648C20.1351 32.4788 20.7637 33.8427 22.2208 33.7712C22.5708 35.2708 20.3566 34.9852 20.3066 36.7418C20.2637 38.4771 21.8851 38.32 21.8923 39.9124C21.8994 41.4263 20.2351 42.3689 18.8994 41.8904C17.2637 41.312 17.1351 39.8981 16.7851 38.6485C16.0137 39.9552 15.7923 41.7333 16.5851 43.0472C15.5566 43.1758 15.0208 42.2475 14.978 41.3334C14.428 42.2118 14.6351 43.4757 15.1708 44.2826C14.7708 44.1969 14.2208 44.404 13.8137 44.3397C13.5494 45.875 14.8566 47.6031 16.0708 48.4957C17.3851 49.4669 20.0137 49.2527 17.8423 51.0522C16.2423 52.3804 14.8923 51.6163 14.8423 54.1799C14.8066 56.0151 15.678 57.7289 17.6351 57.6717C17.6566 57.5432 17.6994 57.4289 17.7637 57.3647C16.3423 58.9928 16.7351 61.6778 18.2066 63.1059C17.9066 62.1491 17.7566 60.7852 18.6851 60.1925C18.5566 60.9351 18.6566 61.6992 19.3994 61.9634C19.0994 65.4053 25.578 65.5838 27.8851 65.8052C29.6423 65.9766 31.2637 66.6978 32.9994 66.8692C34.6351 67.0334 36.4351 66.7478 38.078 66.655C38.2351 59.5284 42.0351 53.073 44.5851 46.5463C45.7351 43.5971 44.0423 41.8333 41.9423 39.5411C38.9208 36.242 35.628 33.3785 32.9923 29.8581L23.128 25.1094Z" fill="#31201E"/>
<path d="M64.7782 65.5265C62.1425 62.2346 41.2496 55.0151 41.2496 55.0151C41.2496 55.0151 20.7996 62.9986 17.7211 65.5265C14.6425 68.0544 13.4854 84.0071 13.4854 84.0071H68.4068C68.4068 83.9999 67.4211 68.8113 64.7782 65.5265Z" fill="#BC4C58"/>
<path d="M47.7285 58.8641C47.7285 58.8641 46.9285 62.7416 41.2571 62.7416C35.5857 62.7416 34.7857 58.8641 34.7857 58.8641C34.7857 58.8641 36.3642 55.7292 34.7857 52.0517C33.2071 48.3741 49.6571 47.6243 47.7285 52.0517C45.7999 56.479 47.7285 58.8641 47.7285 58.8641Z" fill="#CEA57A"/>
<path d="M54.7641 44.3325C55.1784 38.8126 58.6784 30.8576 58.6784 30.8576C63.6641 19.7179 55.6641 3.4367 48.8356 8.08541C41.5213 -1.66902 16.9641 9.24937 24.357 30.7077C24.357 30.7077 27.3927 38.1056 27.6855 43.5684C27.9784 49.0312 37.7927 54.2725 40.9498 54.4511C44.0998 54.6224 54.3498 49.8524 54.7641 44.3325Z" fill="#31201E"/>
<path d="M59.5427 34.0496C59.5427 36.9703 57.4712 40.9763 56.0784 40.9763C54.6855 40.9763 53.5498 38.6127 53.5498 35.692C53.5498 32.7714 54.9784 31.2647 56.0784 30.4078C57.4284 29.351 59.5427 30.4078 59.5427 34.0496Z" fill="#E9BA8E"/>
<path d="M23.3779 34.0496C23.3779 36.9703 25.4494 40.9763 26.8422 40.9763C28.2351 40.9763 29.3708 38.6127 29.3708 35.692C29.3708 32.7714 27.9422 31.2647 26.8422 30.4078C25.4922 29.351 23.3779 30.4078 23.3779 34.0496Z" fill="#E9BA8E"/>
<path d="M41.5208 10.9062C31.7136 10.9062 27.3779 17.7758 27.3779 28.0229C27.3779 33.2429 27.3779 37.3275 27.3779 40.8551C27.3779 49.7811 37.6922 57.4147 40.9494 57.4147C44.2065 57.4147 55.6636 48.4886 55.6636 40.0338C55.6636 36.6919 55.6636 32.843 55.6636 28.0229C55.6636 17.7758 51.3279 10.9062 41.5208 10.9062Z" fill="#E9BA8E"/>
<path d="M55.6641 35.3421L56.0784 30.0221C58.2141 19.6607 51.4213 9.64209 41.6141 9.64209C31.807 9.64209 24.1999 20.5748 26.8284 30.9362L27.3784 36.9916C27.3784 36.9916 29.2641 35.3992 29.5927 32.5286C30.0284 28.7082 32.807 24.9807 38.1713 23.9524C46.6284 22.3386 49.007 17.2685 49.007 17.2685C49.007 17.2685 50.7927 19.825 52.5641 23.9524C53.707 26.6231 52.5641 28.2583 53.5499 30.929C54.5927 33.7425 55.6641 35.3421 55.6641 35.3421Z" fill="#31201E"/>
</g>
</svg>
