<svg width="17" height="17" viewBox="0 0 17 17" fill="none" xmlns="http://www.w3.org/2000/svg">
<g opacity="0.9">
<path d="M8.9574 3.96519H8.04479C7.9613 3.96519 7.893 4.0335 7.893 4.11698V9.34031C7.893 9.38964 7.91577 9.43517 7.95561 9.46363L11.0919 11.7537C11.1602 11.803 11.2551 11.7897 11.3044 11.7214L11.847 10.9815C11.8982 10.9113 11.8831 10.8164 11.8148 10.769L9.10918 8.81285V4.11698C9.10918 4.0335 9.04088 3.96519 8.9574 3.96519ZM13.1277 5.39198L16.1027 6.11865C16.1976 6.14142 16.2905 6.06932 16.2905 5.97256L16.3057 2.90839C16.3057 2.78127 16.1596 2.70917 16.061 2.78886L13.0708 5.12446C13.0482 5.14194 13.031 5.16545 13.0212 5.19227C13.0113 5.2191 13.0093 5.24816 13.0152 5.2761C13.0211 5.30405 13.0349 5.32975 13.0548 5.35025C13.0747 5.37075 13.1 5.38521 13.1277 5.39198ZM16.3095 11.1048L15.2337 10.7348C15.1962 10.722 15.1552 10.7243 15.1194 10.7413C15.0836 10.7583 15.0558 10.7887 15.0421 10.8259C15.0061 10.9227 14.9681 11.0175 14.9283 11.1124C14.5905 11.9112 14.1067 12.6303 13.4882 13.2469C12.8765 13.8604 12.1517 14.3495 11.3537 14.687C10.5271 15.0364 9.63856 15.2158 8.7411 15.2144C7.83418 15.2144 6.95572 15.038 6.12849 14.687C5.33055 14.3495 4.60566 13.8604 3.994 13.2469C3.37737 12.6303 2.89356 11.9112 2.55394 11.1124C2.20638 10.2853 2.02831 9.39692 2.03028 8.49979C2.03028 7.59287 2.20673 6.71252 2.55773 5.88528C2.89545 5.08651 3.37927 4.36743 3.9978 3.7508C4.60946 3.13724 5.33435 2.64818 6.13229 2.31073C6.95572 1.95973 7.83608 1.78327 8.743 1.78327C9.64992 1.78327 10.5284 1.95973 11.3556 2.31073C12.1536 2.64818 12.8784 3.13724 13.4901 3.7508C13.6836 3.94622 13.8658 4.14923 14.0327 4.36363L15.1673 3.47569C13.6741 1.56698 11.3499 0.339413 8.7392 0.341311C4.19322 0.343208 0.542776 4.0354 0.588312 8.58327C0.633848 13.0515 4.26722 16.6583 8.743 16.6583C12.2625 16.6583 15.2603 14.427 16.4025 11.3021C16.4309 11.2224 16.3892 11.1333 16.3095 11.1048Z" fill="white"/>
</g>
</svg>
