<svg width="17" height="17" viewBox="0 0 17 17" fill="none" xmlns="http://www.w3.org/2000/svg">
<path d="M3.1875 0.236328H9.82812V1.41688H3.1875C2.83526 1.41688 2.49745 1.54126 2.24837 1.76266C1.9993 1.98406 1.85938 2.28434 1.85938 2.59744V14.403C1.85938 14.7161 1.9993 15.0164 2.24837 15.2378C2.49745 15.4592 2.83526 15.5835 3.1875 15.5835H13.8125C14.1647 15.5835 14.5026 15.4592 14.7516 15.2378C15.0007 15.0164 15.1406 14.7161 15.1406 14.403V6.13911H16.4688V14.403C16.4688 15.0292 16.1889 15.6298 15.6908 16.0726C15.1926 16.5153 14.517 16.7641 13.8125 16.7641H3.1875C2.48302 16.7641 1.80739 16.5153 1.30925 16.0726C0.811104 15.6298 0.53125 15.0292 0.53125 14.403V2.59744C0.53125 1.97123 0.811104 1.37068 1.30925 0.927882C1.80739 0.485087 2.48302 0.236328 3.1875 0.236328Z" fill="white"/>
<path d="M9.82812 4.36827V0.236328L16.4688 6.13911H11.8203C11.292 6.13911 10.7852 5.95254 10.4116 5.62044C10.038 5.28834 9.82813 4.83793 9.82812 4.36827Z" fill="white"/>
</svg>
