<svg width="84" height="84" viewBox="0 0 84 84" fill="none" xmlns="http://www.w3.org/2000/svg">
<path opacity="0.5" d="M84 41.913C84 65.0578 65.1929 83.8259 42 83.8259C18.8071 83.8259 0 65.0578 0 41.913C0 18.761 18.8071 0 42 0C65.2 0 84 18.761 84 41.913Z" fill="#FFBB2F"/>
<mask id="mask0" mask-type="alpha" maskUnits="userSpaceOnUse" x="0" y="0" width="84" height="84">
<path d="M84 41.913C84 65.0578 65.1929 83.8259 42 83.8259C18.8071 83.8259 0 65.0578 0 41.913C0 18.761 18.8071 0 42 0C65.2 0 84 18.761 84 41.913Z" fill="#E7B141"/>
</mask>
<g mask="url(#mask0)">
<path d="M66.7495 66.1341C63.9281 62.8481 41.6067 55.6416 41.6067 55.6416C41.6067 55.6416 19.7567 63.6179 16.4638 66.1341C13.171 68.6574 11.9424 84.5815 11.9424 84.5815H70.6281C70.6281 84.5744 69.571 69.4201 66.7495 66.1341Z" fill="#2A4C72"/>
<path d="M51.771 60.2533L41.6067 64.1238L31.4424 60.2533V55.0855C31.4424 55.0855 36.0781 53.4531 41.8567 53.4531C47.6352 53.4531 51.771 55.0855 51.771 55.0855V60.2533Z" fill="#213B58"/>
<path d="M50.2421 55.4989L41.6064 59.3694L32.9707 55.4989V48.6987H50.2421V55.4989Z" fill="#CEA57A"/>
<path d="M59.0213 35.3551V26.0031C59.0213 12.9017 53.757 4.11279 41.8642 4.11279C29.9642 4.11279 24.707 12.9017 24.707 26.0031V35.3551C24.707 35.3551 27.3285 33.1953 29.7213 30.4866C30.7999 29.2677 27.1213 22.5531 28.2427 19.7304C29.607 16.3089 33.0927 13.8711 33.0927 13.8711C33.0927 13.8711 34.5356 15.5391 40.9356 16.1236C47.4927 16.7223 49.7713 13.1155 49.7713 13.1155C49.7713 13.1155 50.3285 28.0773 51.7927 30.0447C54.9142 34.2645 59.0213 35.3551 59.0213 35.3551Z" fill="black"/>
<path d="M59.8776 31.4275C59.8776 34.3429 57.8062 38.3489 56.4133 38.3489C55.0205 38.3489 53.8848 35.9895 53.8848 33.0741C53.8848 30.1587 55.3133 28.6547 56.4133 27.7993C57.7633 26.7373 59.8776 27.7922 59.8776 31.4275Z" fill="#E9BA8E"/>
<path d="M23.7207 31.4275C23.7207 34.3429 25.7921 38.3489 27.185 38.3489C28.5778 38.3489 29.7136 35.9895 29.7136 33.0741C29.7136 30.1587 28.285 28.6547 27.185 27.7993C25.835 26.7373 23.7207 27.7922 23.7207 31.4275Z" fill="#E9BA8E"/>
<path d="M41.8567 8.33252C32.0496 8.33252 27.7139 15.1897 27.7139 25.4185C27.7139 30.6291 27.7139 34.7063 27.7139 38.2276C27.7139 40.1023 28.3996 44.9493 29.121 46.432C31.4424 51.2149 38.321 56.5111 41.5853 56.5111C44.8424 56.5111 52.5853 51.2648 54.421 46.7242C55.1282 44.9707 56.0067 39.5962 56.0067 37.4007C56.0067 34.0648 56.0067 30.2228 56.0067 25.4113C55.9996 15.1897 51.6639 8.33252 41.8567 8.33252Z" fill="#E9BA8E"/>
<path d="M55.9992 32.7179L56.8778 27.4075C57.4992 15.3325 51.6564 6.4082 41.8564 6.4082C32.0492 6.4082 26.7135 16.6227 27.0921 27.4075L27.7135 32.7179C27.7135 32.7179 27.735 28.7333 29.7135 26.6234C30.6064 25.6682 29.6992 22.7315 30.6278 20.5289C31.7492 17.8559 34.6207 15.9598 34.6207 15.9598C34.6207 15.9598 35.8135 17.2642 41.0778 17.7133C46.485 18.1838 48.3635 15.3682 48.3635 15.3682C48.3635 15.3682 51.585 15.6105 53.3564 19.7377C54.4992 22.4036 53.6207 23.6367 53.535 25.3047C53.4421 26.9726 55.9992 32.7179 55.9992 32.7179Z" fill="black"/>
</g>
</svg>
