<svg width="33" height="33" viewBox="0 0 33 33" fill="none" xmlns="http://www.w3.org/2000/svg">
<path opacity="0.5" d="M33 16.4658C33 25.5584 25.6115 32.9316 16.5 32.9316C7.38852 32.9316 0 25.5584 0 16.4658C0 7.37041 7.38852 0 16.5 0C25.6143 0 33 7.37041 33 16.4658Z" fill="#FFBB2F"/>
<mask id="mask0" mask-type="alpha" maskUnits="userSpaceOnUse" x="0" y="0" width="33" height="33">
<path d="M33 16.4658C33 25.5584 25.6115 32.9316 16.5 32.9316C7.38852 32.9316 0 25.5584 0 16.4658C0 7.37041 7.38852 0 16.5 0C25.6143 0 33 7.37041 33 16.4658Z" fill="#E7B141"/>
</mask>
<g mask="url(#mask0)">
<path d="M26.2233 25.9814C25.1149 24.6905 16.3457 21.8594 16.3457 21.8594C16.3457 21.8594 7.76179 24.9929 6.46817 25.9814C5.17455 26.9727 4.69189 33.2286 4.69189 33.2286H27.747C27.747 33.2258 27.3317 27.2724 26.2233 25.9814Z" fill="#2A4C72"/>
<path d="M20.3388 23.671L16.3457 25.1916L12.3525 23.671V21.6408C12.3525 21.6408 14.1737 20.9995 16.4439 20.9995C18.714 20.9995 20.3388 21.6408 20.3388 21.6408V23.671Z" fill="#213B58"/>
<path d="M19.7383 21.8033L16.3457 23.3239L12.9531 21.8033V19.1318H19.7383V21.8033Z" fill="#CEA57A"/>
<path d="M23.1872 13.8895V10.2155C23.1872 5.0685 21.119 1.61572 16.4468 1.61572C11.7718 1.61572 9.70654 5.0685 9.70654 10.2155V13.8895C9.70654 13.8895 10.7364 13.041 11.6764 11.9769C12.1002 11.498 10.655 8.86012 11.0956 7.7512C11.6315 6.40705 13.0009 5.44934 13.0009 5.44934C13.0009 5.44934 13.5678 6.10462 16.0821 6.33424C18.6581 6.56947 19.5532 5.15251 19.5532 5.15251C19.5532 5.15251 19.7721 11.0304 20.3474 11.8032C21.5736 13.461 23.1872 13.8895 23.1872 13.8895Z" fill="black"/>
<path d="M23.5238 12.3467C23.5238 13.492 22.71 15.0658 22.1628 15.0658C21.6156 15.0658 21.1694 14.1389 21.1694 12.9936C21.1694 11.8482 21.7307 11.2574 22.1628 10.9213C22.6932 10.5041 23.5238 10.9185 23.5238 12.3467Z" fill="#E9BA8E"/>
<path d="M9.31934 12.3467C9.31934 13.492 10.1331 15.0658 10.6803 15.0658C11.2275 15.0658 11.6737 14.1389 11.6737 12.9936C11.6737 11.8482 11.1124 11.2574 10.6803 10.9213C10.1499 10.5041 9.31934 10.9185 9.31934 12.3467Z" fill="#E9BA8E"/>
<path d="M16.4438 3.27344C12.591 3.27344 10.8877 5.96733 10.8877 9.98577C10.8877 12.0328 10.8877 13.6346 10.8877 15.0179C10.8877 15.7544 11.1571 17.6586 11.4405 18.2411C12.3525 20.1201 15.0548 22.2007 16.3372 22.2007C17.6168 22.2007 20.6586 20.1397 21.3798 18.3559C21.6576 17.667 22.0027 15.5556 22.0027 14.6931C22.0027 13.3825 22.0027 11.8732 22.0027 9.98297C21.9999 5.96733 20.2966 3.27344 16.4438 3.27344Z" fill="#E9BA8E"/>
<path d="M22 12.8535L22.3452 10.7673C22.5893 6.02356 20.2939 2.51758 16.4439 2.51758C12.5911 2.51758 10.4949 6.53042 10.6436 10.7673L10.8878 12.8535C10.8878 12.8535 10.8962 11.2881 11.6735 10.4593C12.0242 10.084 11.6679 8.93028 12.0327 8.06499C12.4732 7.01487 13.6013 6.26999 13.6013 6.26999C13.6013 6.26999 14.0699 6.78245 16.138 6.95887C18.2623 7.14369 19.0003 6.03757 19.0003 6.03757C19.0003 6.03757 20.2658 6.13278 20.9617 7.75416C21.4107 8.80147 21.0656 9.28592 21.0319 9.9412C20.9954 10.5965 22 12.8535 22 12.8535Z" fill="black"/>
</g>
</svg>
