<svg width="17" height="17" viewBox="0 0 17 17" fill="none" xmlns="http://www.w3.org/2000/svg">
<path d="M8.5 0C3.80444 0 0 3.68555 0 8.23438C0 12.7832 3.80444 16.4688 8.5 16.4688C13.1956 16.4688 17 12.7832 17 8.23438C17 3.68555 13.1956 0 8.5 0ZM8.5 3.1875C10.1657 3.1875 11.5161 4.4957 11.5161 6.10938C11.5161 7.72305 10.1657 9.03125 8.5 9.03125C6.83427 9.03125 5.48387 7.72305 5.48387 6.10938C5.48387 4.4957 6.83427 3.1875 8.5 3.1875ZM8.5 14.6094C6.4881 14.6094 4.68528 13.7262 3.47883 12.3449C4.12319 11.1695 5.38448 10.3594 6.85484 10.3594C6.9371 10.3594 7.01936 10.3727 7.09819 10.3959C7.54375 10.5354 8.00988 10.625 8.5 10.625C8.99012 10.625 9.45968 10.5354 9.90181 10.3959C9.98065 10.3727 10.0629 10.3594 10.1452 10.3594C11.6155 10.3594 12.8768 11.1695 13.5212 12.3449C12.3147 13.7262 10.5119 14.6094 8.5 14.6094Z" fill="white"/>
</svg>
