<svg width="17" height="17" viewBox="0 0 17 17" fill="none" xmlns="http://www.w3.org/2000/svg">
<g opacity="0.9">
<path d="M13.4016 2.84634H4.63306C4.36143 2.84634 4.14123 2.62614 4.14123 2.3545V2.1084C4.14123 1.83145 3.91671 1.60693 3.63976 1.60693H1.00293C0.449039 1.60693 0 2.05594 0 2.60987V11.0489L1.28685 4.78819C1.33387 4.55949 1.53515 4.39536 1.76863 4.39536H14.4046V3.84927C14.4046 3.29535 13.9555 2.84634 13.4016 2.84634Z" fill="white"/>
<path d="M15.9966 5.37939H2.16932L0.234006 14.7947C0.170522 15.1036 0.406464 15.393 0.72186 15.393H15.1107C15.6219 15.393 16.0513 15.0085 16.1075 14.5004L16.9935 6.49263C17.0592 5.89866 16.5941 5.37939 15.9966 5.37939Z" fill="white"/>
</g>
</svg>
