<svg width="16" height="16" viewBox="0 0 16 16" fill="none" xmlns="http://www.w3.org/2000/svg">
<g clip-path="url(#clip0)">
<path d="M9.9999 8.66752C9.63125 8.66752 9.33328 8.96622 9.33328 9.33414V12.0009C9.33328 12.3682 9.03457 12.6675 8.66654 12.6675H6.66656V2.66758C6.66656 2.09825 6.30389 1.58958 5.75861 1.40026L5.56122 1.33422H8.66654C9.03457 1.33422 9.33328 1.63353 9.33328 2.00096V4.00094C9.33328 4.36885 9.63125 4.66756 9.9999 4.66756C10.3685 4.66756 10.6665 4.36885 10.6665 4.00094V2.00096C10.6665 0.898307 9.76919 0.000976562 8.66654 0.000976562H1.49998C1.47459 0.000976562 1.45335 0.012329 1.4287 0.0156249C1.39659 0.0129393 1.36595 0.000976562 1.33336 0.000976562C0.598016 0.000976562 0 0.598871 0 1.33422V13.3341C0 13.9034 0.362667 14.4121 0.907949 14.6014L4.91999 15.9388C5.05598 15.9808 5.19123 16.0008 5.33332 16.0008C6.06866 16.0008 6.66656 15.4028 6.66656 14.6675V14.0008H8.66654C9.76919 14.0008 10.6665 13.1035 10.6665 12.0009V9.33414C10.6665 8.96622 10.3685 8.66752 9.9999 8.66752Z" fill="white"/>
<path d="M15.8045 6.19561L13.1378 3.52901C12.9472 3.33834 12.6605 3.28096 12.4112 3.38423C12.1626 3.48763 11.9998 3.73091 11.9998 4.00032V6.0003H9.33325C8.96521 6.0003 8.6665 6.29888 8.6665 6.66692C8.6665 7.03495 8.96521 7.33353 9.33325 7.33353H11.9998V9.33351C11.9998 9.60292 12.1626 9.8462 12.4112 9.9496C12.6605 10.0529 12.9472 9.99549 13.1378 9.80494L15.8045 7.13822C16.0651 6.87761 16.0651 6.45622 15.8045 6.19561Z" fill="white"/>
</g>
<defs>
<clipPath id="clip0">
<rect width="16" height="16" fill="white"/>
</clipPath>
</defs>
</svg>
