<svg width="17" height="17" viewBox="0 0 17 17" fill="none" xmlns="http://www.w3.org/2000/svg">
<g clip-path="url(#clip0)">
<path d="M6.19775 12.4751V15.7603C6.19775 15.9898 6.34509 16.1931 6.56325 16.2654C6.61779 16.2831 6.67375 16.2916 6.729 16.2916C6.89475 16.2916 7.05483 16.2137 7.15683 16.0748L9.07853 13.4597L6.19775 12.4751Z" fill="white" fill-opacity="0.9"/>
<path d="M16.7764 0.0975445C16.6135 -0.0179138 16.3996 -0.0334971 16.2225 0.0592945L0.285002 8.38221C0.0965849 8.48067 -0.0146234 8.68184 0.000959891 8.89363C0.0172516 9.10613 0.15821 9.28746 0.358668 9.35617L4.78929 10.8706L14.225 2.80267L6.9235 11.5995L14.349 14.1374C14.4042 14.1558 14.4623 14.1658 14.5204 14.1658C14.6167 14.1658 14.7123 14.1395 14.7966 14.0885C14.9312 14.0064 15.0226 13.8683 15.046 13.7131L16.9939 0.608961C17.0229 0.410628 16.9393 0.213711 16.7764 0.0975445Z" fill="white" fill-opacity="0.9"/>
</g>
<defs>
<clipPath id="clip0">
<rect width="17" height="17" fill="white"/>
</clipPath>
</defs>
</svg>
