<svg width="17" height="17" viewBox="0 0 17 17" fill="none" xmlns="http://www.w3.org/2000/svg">
<path fill-rule="evenodd" clip-rule="evenodd" d="M11.744 10.3527H11.0085L10.7528 10.0989C11.656 9.04575 12.2052 7.68041 12.2052 6.18447C12.2052 2.85912 9.50976 0.163635 6.18441 0.163635C2.85906 0.163635 0.163574 2.85912 0.163574 6.18447C0.163574 9.50982 2.85906 12.2053 6.18441 12.2053C7.68035 12.2053 9.04477 11.6569 10.0979 10.7547L10.3536 11.0085V11.7422L14.9832 16.3652L16.3642 14.9841L11.744 10.3527ZM6.18436 10.3528C3.88162 10.3528 2.01609 8.4873 2.01609 6.18457C2.01609 3.88276 3.88162 2.0163 6.18436 2.0163C8.48617 2.0163 10.3526 3.88276 10.3526 6.18457C10.3526 8.4873 8.48617 10.3528 6.18436 10.3528Z" fill="white" fill-opacity="0.9"/>
</svg>
