<svg width="17" height="17" viewBox="0 0 17 17" fill="none" xmlns="http://www.w3.org/2000/svg">
<path d="M8.5001 9.7751C9.20426 9.7751 9.7751 9.20426 9.7751 8.5001C9.7751 7.79593 9.20426 7.2251 8.5001 7.2251C7.79593 7.2251 7.2251 7.79593 7.2251 8.5001C7.2251 9.20426 7.79593 9.7751 8.5001 9.7751Z" fill="white" fill-opacity="0.9"/>
<path d="M15.572 6.2645H14.6455C14.5265 6.2645 14.4415 6.171 14.3905 6.0435C14.3601 5.99668 14.344 5.94206 14.344 5.88625C14.344 5.83044 14.3601 5.77582 14.3905 5.729L15.079 5.1C15.2139 4.97021 15.3212 4.81441 15.3942 4.64202C15.4673 4.46963 15.5046 4.28423 15.504 4.097C15.5038 3.90863 15.4661 3.72219 15.3932 3.54853C15.3202 3.37487 15.2134 3.21747 15.079 3.0855L13.94 1.921C13.8081 1.78813 13.6511 1.68268 13.4783 1.61072C13.3054 1.53876 13.12 1.50171 12.9328 1.50171C12.7455 1.50171 12.5601 1.53876 12.3872 1.61072C12.2144 1.68268 12.0574 1.78813 11.9255 1.921L11.271 2.55C11.219 2.58332 11.1585 2.60103 11.0968 2.60103C11.035 2.60103 10.9745 2.58332 10.9225 2.55C10.8712 2.53086 10.8263 2.49753 10.7932 2.45388C10.7601 2.41024 10.7401 2.35809 10.7355 2.3035V1.428C10.7357 1.05652 10.5911 0.699598 10.3324 0.432985C10.0737 0.166372 9.72132 0.0110559 9.35 2.20443e-10H7.701C7.32149 -6.64378e-06 6.95739 0.150171 6.68823 0.417732C6.41908 0.685292 6.26675 1.04849 6.2645 1.428V2.3545C6.2645 2.4735 6.171 2.5585 6.0435 2.6095C5.99668 2.63987 5.94206 2.65603 5.88625 2.65603C5.83044 2.65603 5.77582 2.63987 5.729 2.6095L5.1 1.921C4.83079 1.65339 4.46805 1.50098 4.0885 1.496C3.90142 1.49636 3.71631 1.53415 3.54405 1.60714C3.3718 1.68013 3.21589 1.78685 3.0855 1.921L1.921 3.06C1.78425 3.19236 1.67551 3.35086 1.60124 3.52609C1.52698 3.70131 1.48871 3.88969 1.48871 4.08C1.48871 4.27031 1.52698 4.45869 1.60124 4.63391C1.67551 4.80914 1.78425 4.96764 1.921 5.1L2.55 5.729C2.58332 5.78101 2.60103 5.84148 2.60103 5.90325C2.60103 5.96502 2.58332 6.02549 2.55 6.0775C2.53086 6.12883 2.49753 6.17366 2.45388 6.20677C2.41024 6.23987 2.35809 6.2599 2.3035 6.2645H1.428C1.04927 6.2645 0.686054 6.41495 0.418252 6.68275C0.15045 6.95055 2.20444e-10 7.31377 2.20443e-10 7.6925V9.299C-6.64378e-06 9.67852 0.150171 10.0426 0.417732 10.3118C0.685292 10.5809 1.04849 10.7333 1.428 10.7355H2.3545C2.4735 10.7355 2.5585 10.829 2.6095 10.9565C2.63987 11.0033 2.65603 11.0579 2.65603 11.1138C2.65603 11.1696 2.63987 11.2242 2.6095 11.271L1.921 11.9C1.65339 12.1692 1.50098 12.5319 1.496 12.9115C1.49571 13.0999 1.53317 13.2865 1.60616 13.4603C1.67915 13.634 1.78621 13.7913 1.921 13.923L3.06 15.079C3.19194 15.2119 3.34886 15.3173 3.52173 15.3893C3.6946 15.4612 3.88 15.4983 4.06725 15.4983C4.2545 15.4983 4.4399 15.4612 4.61277 15.3893C4.78564 15.3173 4.94256 15.2119 5.0745 15.079L5.729 14.45C5.78101 14.4167 5.84148 14.399 5.90325 14.399C5.96502 14.399 6.02549 14.4167 6.0775 14.45C6.12883 14.4691 6.17366 14.5025 6.20677 14.5461C6.23987 14.5898 6.2599 14.6419 6.2645 14.6965V15.623C6.27772 15.9928 6.43398 16.3431 6.70036 16.5999C6.96675 16.8568 7.32244 17.0002 7.6925 17H9.299C9.67852 17 10.0426 16.8498 10.3118 16.5823C10.5809 16.3147 10.7333 15.9515 10.7355 15.572V14.6455C10.7355 14.5265 10.829 14.4415 10.9565 14.3905C11.0033 14.3601 11.0579 14.344 11.1138 14.344C11.1696 14.344 11.2242 14.3601 11.271 14.3905L11.917 15.045C12.1862 15.3126 12.5489 15.465 12.9285 15.47C13.1156 15.4696 13.3007 15.4318 13.4729 15.3589C13.6452 15.2859 13.8011 15.1792 13.9315 15.045L15.0705 13.906C15.2034 13.7741 15.3088 13.6171 15.3808 13.4443C15.4527 13.2714 15.4898 13.086 15.4898 12.8987C15.4898 12.7115 15.4527 12.5261 15.3808 12.3532C15.3088 12.1804 15.2034 12.0234 15.0705 11.8915L14.45 11.271C14.4196 11.2242 14.4035 11.1696 14.4035 11.1138C14.4035 11.0579 14.4196 11.0033 14.45 10.9565C14.4691 10.9052 14.5025 10.8603 14.5461 10.8272C14.5898 10.7941 14.6419 10.7741 14.6965 10.7695H15.623C15.9914 10.7563 16.3404 10.6013 16.597 10.3367C16.8536 10.0721 16.998 9.71859 17 9.35V7.701C17 7.32149 16.8498 6.95739 16.5823 6.68823C16.3147 6.41908 15.9515 6.26675 15.572 6.2645ZM8.5 11.475C7.9116 11.475 7.33641 11.3005 6.84718 10.9736C6.35794 10.6467 5.97663 10.1821 5.75146 9.63848C5.52629 9.09487 5.46737 8.4967 5.58216 7.91961C5.69695 7.34251 5.9803 6.81242 6.39636 6.39636C6.81242 5.9803 7.34251 5.69695 7.91961 5.58216C8.4967 5.46737 9.09487 5.52629 9.63848 5.75146C10.1821 5.97663 10.6467 6.35794 10.9736 6.84718C11.3005 7.33641 11.475 7.9116 11.475 8.5C11.475 9.28902 11.1616 10.0457 10.6036 10.6036C10.0457 11.1616 9.28902 11.475 8.5 11.475Z" fill="white" fill-opacity="0.9"/>
</svg>
