<svg width="16" height="15" viewBox="0 0 16 15" fill="none" xmlns="http://www.w3.org/2000/svg">
<path d="M8.4833 5.97656C8.0983 5.97656 7.79997 6.27623 7.79997 6.64621C7.79997 7.01618 8.0983 7.31585 8.4833 7.31585C8.83497 7.31585 9.1333 7.01618 9.1333 6.64621C9.1333 6.27623 8.83497 5.97656 8.4833 5.97656ZM3.81663 5.97656C3.43163 5.97656 3.1333 6.27623 3.1333 6.64621C3.1333 7.01618 3.43163 7.31585 3.81663 7.31585C4.1683 7.31585 4.46663 7.01618 4.46663 6.64621C4.46663 6.27623 4.1683 5.97656 3.81663 5.97656Z" fill="white"/>
<path d="M13.8331 4.70436C13.0314 3.59945 11.9114 2.86117 10.6831 2.52802V2.5297C10.3981 2.21162 10.0764 1.91865 9.71644 1.65749C6.98811 -0.3347 3.15811 0.273001 1.16644 3.01351C-0.438556 5.24008 -0.370222 8.23505 1.26644 10.3628L1.27978 12.5827C1.27978 12.6363 1.28811 12.6899 1.30478 12.7401C1.39311 13.023 1.69311 13.1787 1.97311 13.09L4.08311 12.422C4.64144 12.6212 5.21811 12.7351 5.79144 12.7669L5.78311 12.7736C7.26811 13.8601 9.21478 14.1865 10.9998 13.5939L13.1181 14.287C13.1714 14.3037 13.2264 14.3137 13.2831 14.3137C13.5781 14.3137 13.8164 14.0743 13.8164 13.778V11.5347C15.2848 9.53249 15.3231 6.76519 13.8331 4.70436ZM4.31644 11.2334L4.11644 11.1497L2.46644 11.6686L2.44978 9.92758L2.31644 9.77691C0.906444 8.04923 0.813111 5.55983 2.13311 3.73338C3.73978 1.52021 6.81978 1.03137 9.01644 2.62847C11.2198 4.23729 11.7081 7.32601 10.1164 9.52579C8.78144 11.3656 6.39144 12.0453 4.31644 11.2334ZM12.7331 10.9488L12.5998 11.1162L12.6164 12.8573L10.9831 12.3048L10.7831 12.3885C9.84978 12.7367 8.85478 12.7652 7.93311 12.5057L7.92978 12.504C9.16144 12.124 10.2781 11.3539 11.0831 10.2457C12.3564 8.48282 12.5631 6.26798 11.8231 4.37959L11.8331 4.38628C12.2164 4.66251 12.5681 5.00738 12.8664 5.42423C14.0764 7.09164 14.0081 9.36173 12.7331 10.9488Z" fill="white"/>
<path d="M6.15013 5.97656C5.76513 5.97656 5.4668 6.27623 5.4668 6.64621C5.4668 7.01618 5.76513 7.31585 6.15013 7.31585C6.5018 7.31585 6.80013 7.01618 6.80013 6.64621C6.80013 6.27623 6.5018 5.97656 6.15013 5.97656Z" fill="white"/>
</svg>
