<svg width="11" height="14" viewBox="0 0 11 14" fill="none" xmlns="http://www.w3.org/2000/svg">
<path d="M10.6712 2.61002L8.19378 0.121734C8.11792 0.0451172 8.00938 0 7.90021 0H0.412903C0.18487 0 0 0.183641 0 0.410156V13.5898C0 13.8164 0.18487 14 0.412903 14H10.3776C10.6057 14 10.7905 13.8164 10.7905 13.5898V2.89844C10.7905 2.79456 10.7492 2.68833 10.6712 2.61002ZM8.31311 1.40815L9.3885 2.48828H8.31311V1.40815ZM9.96472 13.1797H0.825806V0.820312H7.4873V2.89844C7.4873 3.12495 7.67217 3.30859 7.90021 3.30859H9.96472V13.1797Z" fill="white"/>
<path d="M8.72614 4.12891H6.19366C5.96563 4.12891 5.78076 4.31255 5.78076 4.53906C5.78076 4.76558 5.96563 4.94922 6.19366 4.94922H8.72614C8.95417 4.94922 9.13904 4.76558 9.13904 4.53906C9.13904 4.31255 8.95417 4.12891 8.72614 4.12891Z" fill="white"/>
<path d="M8.72614 7.41016H6.19366C5.96563 7.41016 5.78076 7.5938 5.78076 7.82031C5.78076 8.04683 5.96563 8.23047 6.19366 8.23047H8.72614C8.95417 8.23047 9.13904 8.04683 9.13904 7.82031C9.13904 7.5938 8.95417 7.41016 8.72614 7.41016Z" fill="white"/>
<path d="M8.72614 10.6914H6.19366C5.96563 10.6914 5.78076 10.875 5.78076 11.1016C5.78076 11.3281 5.96563 11.5117 6.19366 11.5117H8.72614C8.95417 11.5117 9.13904 11.3281 9.13904 11.1016C9.13904 10.875 8.95417 10.6914 8.72614 10.6914Z" fill="white"/>
<path d="M4.83365 2.60842C4.67243 2.44824 4.41098 2.44824 4.24975 2.60839L2.89009 3.95901L2.35623 3.42873C2.19501 3.26855 1.93356 3.26855 1.77231 3.42873C1.61105 3.58891 1.61105 3.8486 1.77231 4.00878L2.59811 4.82909C2.75934 4.98927 3.02079 4.98927 3.18204 4.82909L4.83365 3.18846C4.99491 3.02828 4.99491 2.7686 4.83365 2.60842Z" fill="white"/>
<path d="M4.83365 5.88967C4.67243 5.72949 4.41098 5.72949 4.24975 5.88967L2.89009 7.24028L2.35623 6.70998C2.19501 6.5498 1.93356 6.5498 1.77231 6.70998C1.61105 6.87016 1.61105 7.12984 1.77231 7.29002L2.59811 8.11033C2.75934 8.27049 3.02079 8.27051 3.18204 8.11033L4.83365 6.46971C4.99491 6.30953 4.99491 6.04985 4.83365 5.88967Z" fill="white"/>
<path d="M4.83365 9.17092C4.67243 9.01074 4.41098 9.01074 4.24975 9.17092L2.89009 10.5215L2.35623 9.99123C2.19501 9.83105 1.93356 9.83105 1.77231 9.99123C1.61105 10.1514 1.61105 10.4111 1.77231 10.5713L2.59811 11.3916C2.75934 11.5517 3.02079 11.5518 3.18204 11.3916L4.83365 9.75096C4.99491 9.59078 4.99491 9.3311 4.83365 9.17092Z" fill="white"/>
</svg>
