<svg width="15" height="15" viewBox="0 0 15 15" fill="none" xmlns="http://www.w3.org/2000/svg">
<path fill-rule="evenodd" clip-rule="evenodd" d="M0.46875 7.5C0.59307 7.5 0.712299 7.54939 0.800206 7.63729C0.888114 7.7252 0.9375 7.84443 0.9375 7.96875V11.25C0.9375 11.4986 1.03627 11.7371 1.21209 11.9129C1.3879 12.0887 1.62636 12.1875 1.875 12.1875H13.125C13.3736 12.1875 13.6121 12.0887 13.7879 11.9129C13.9637 11.7371 14.0625 11.4986 14.0625 11.25V7.96875C14.0625 7.84443 14.1119 7.7252 14.1998 7.63729C14.2877 7.54939 14.4069 7.5 14.5312 7.5C14.6556 7.5 14.7748 7.54939 14.8627 7.63729C14.9506 7.7252 15 7.84443 15 7.96875V11.25C15 11.7473 14.8025 12.2242 14.4508 12.5758C14.0992 12.9275 13.6223 13.125 13.125 13.125H1.875C1.37772 13.125 0.900806 12.9275 0.549175 12.5758C0.197544 12.2242 0 11.7473 0 11.25V7.96875C0 7.84443 0.049386 7.7252 0.137294 7.63729C0.225201 7.54939 0.34443 7.5 0.46875 7.5Z" fill="white"/>
<path fill-rule="evenodd" clip-rule="evenodd" d="M4.68754 7.03129C4.77544 6.94341 4.89465 6.89404 5.01894 6.89404C5.14324 6.89404 5.26245 6.94341 5.35035 7.03129L7.50004 9.18098L9.64972 7.03129C9.69296 6.98652 9.74469 6.95081 9.80188 6.92624C9.85907 6.90167 9.92058 6.88874 9.98282 6.8882C10.0451 6.88766 10.1068 6.89952 10.1644 6.92309C10.222 6.94666 10.2743 6.98147 10.3183 7.02548C10.3624 7.06949 10.3972 7.12183 10.4207 7.17943C10.4443 7.23704 10.4562 7.29877 10.4556 7.36101C10.4551 7.42325 10.4422 7.48476 10.4176 7.54195C10.393 7.59914 10.3573 7.65086 10.3125 7.6941L7.83191 10.1757C7.78837 10.2193 7.73664 10.2539 7.67969 10.2776C7.62274 10.3012 7.56169 10.3134 7.50004 10.3134C7.43838 10.3134 7.37733 10.3012 7.32038 10.2776C7.26343 10.2539 7.2117 10.2193 7.16816 10.1757L4.68754 7.6941C4.59966 7.6062 4.55029 7.48699 4.55029 7.36269C4.55029 7.2384 4.59966 7.11919 4.68754 7.03129Z" fill="white"/>
<path fill-rule="evenodd" clip-rule="evenodd" d="M7.5 0.9375C7.62432 0.9375 7.74355 0.986886 7.83146 1.07479C7.91936 1.1627 7.96875 1.28193 7.96875 1.40625V8.90625C7.96875 9.03057 7.91936 9.1498 7.83146 9.23771C7.74355 9.32561 7.62432 9.375 7.5 9.375C7.37568 9.375 7.25645 9.32561 7.16854 9.23771C7.08064 9.1498 7.03125 9.03057 7.03125 8.90625V1.40625C7.03125 1.28193 7.08064 1.1627 7.16854 1.07479C7.25645 0.986886 7.37568 0.9375 7.5 0.9375Z" fill="white"/>
</svg>
