<svg width="15" height="14" viewBox="0 0 15 14" fill="none" xmlns="http://www.w3.org/2000/svg">
<path d="M1 4.805H4.805V1H10V5.19H11V1C11 0.734784 10.8946 0.48043 10.7071 0.292893C10.5196 0.105357 10.2652 0 10 0H3.435L0 3.435V13C0 13.2652 0.105357 13.5196 0.292893 13.7071C0.48043 13.8946 0.734784 14 1 14H10C10.2652 14 10.5196 13.8946 10.7071 13.7071C10.8946 13.5196 11 13.2652 11 13H1V4.805ZM1 3.845L3.845 1H4V4H1V3.845Z" fill="white"/>
<path d="M12.16 6.17492C12.0643 6.093 11.9413 6.0502 11.8155 6.05506C11.6896 6.05992 11.5703 6.11209 11.4812 6.20113C11.3922 6.29018 11.34 6.40955 11.3351 6.53539C11.3303 6.66123 11.3731 6.78427 11.455 6.87992L13.08 8.49992H7C6.86739 8.49992 6.74021 8.55259 6.64645 8.64636C6.55268 8.74013 6.5 8.86731 6.5 8.99992C6.5 9.13252 6.55268 9.2597 6.64645 9.35347C6.74021 9.44724 6.86739 9.49992 7 9.49992H13.095L11.455 11.1399C11.4027 11.1847 11.3601 11.2399 11.3301 11.3019C11.3001 11.364 11.2833 11.4315 11.2806 11.5004C11.2779 11.5692 11.2895 11.6379 11.3147 11.7021C11.3398 11.7662 11.3779 11.8245 11.4267 11.8732C11.4754 11.922 11.5337 11.9601 11.5978 11.9852C11.662 12.0104 11.7307 12.022 11.7995 12.0193C11.8684 12.0167 11.936 11.9998 11.998 11.9698C12.06 11.9398 12.1152 11.8973 12.16 11.8449L15 8.99992L12.16 6.17492Z" fill="white"/>
</svg>
