<svg width="17" height="17" viewBox="0 0 17 17" fill="none" xmlns="http://www.w3.org/2000/svg">
<path d="M15.8759 8.27789C14.2845 5.33594 11.4937 3.55566 8.40534 3.55566C5.31701 3.55566 2.52146 5.33594 0.944234 8.27789L0.812012 8.49983L0.934789 8.7265C2.52618 11.6684 5.31701 13.4487 8.40534 13.4487C11.4937 13.4487 14.2892 11.6921 15.8759 8.7265L15.9987 8.49983L15.8759 8.27789ZM8.40534 12.4807C5.74673 12.4807 3.30535 10.9979 1.88868 8.49983C3.30535 6.00177 5.74673 4.519 8.40534 4.519C11.064 4.519 13.477 6.0065 14.9173 8.49983C13.477 10.9979 11.0592 12.4807 8.40534 12.4807Z" fill="white"/>
<path d="M8.54267 11.7538C10.3318 11.7538 11.7821 10.3034 11.7821 8.51435C11.7821 6.72525 10.3318 5.2749 8.54267 5.2749C6.75357 5.2749 5.30322 6.72525 5.30322 8.51435C5.30322 10.3034 6.75357 11.7538 8.54267 11.7538Z" fill="white"/>
</svg>
